G04*
G04 #@! TF.GenerationSoftware,Altium Limited,Altium Designer,18.0.9 (584)*
G04*
G04 Layer_Physical_Order=2*
G04 Layer_Color=16711680*
%FSLAX25Y25*%
%MOIN*%
G70*
G01*
G75*
%ADD10C,0.01000*%
%ADD45C,0.01200*%
%ADD46C,0.03000*%
%ADD47C,0.19685*%
%ADD48R,0.05906X0.05906*%
%ADD49C,0.05906*%
%ADD50C,0.06000*%
%ADD51R,0.05906X0.05906*%
%ADD52C,0.05000*%
G36*
X455635Y227075D02*
X457500Y226575D01*
X459284Y225836D01*
X460956Y224871D01*
X462488Y223696D01*
X463853Y222330D01*
X465028Y220799D01*
X465994Y219127D01*
X466733Y217343D01*
X467232Y215478D01*
X467484Y213564D01*
Y212598D01*
Y125984D01*
Y125019D01*
X467232Y123105D01*
X466733Y121240D01*
X465994Y119456D01*
X465028Y117784D01*
X463853Y116252D01*
X462488Y114887D01*
X460956Y113712D01*
X459284Y112746D01*
X457500Y112007D01*
X455635Y111508D01*
X453721Y111256D01*
X452756Y111256D01*
X129921D01*
X128956Y111256D01*
X127042Y111508D01*
X125177Y112007D01*
X123393Y112746D01*
X121721Y113712D01*
X120189Y114887D01*
X118824Y116252D01*
X117649Y117784D01*
X116683Y119456D01*
X115945Y121240D01*
X115445Y123105D01*
X115193Y125019D01*
Y125984D01*
X115193Y212598D01*
X115193Y213564D01*
X115445Y215478D01*
X115945Y217343D01*
X116683Y219127D01*
X117649Y220799D01*
X118824Y222330D01*
X120189Y223696D01*
X121721Y224871D01*
X123393Y225836D01*
X125177Y226575D01*
X127042Y227075D01*
X128956Y227327D01*
X453721D01*
X455635Y227075D01*
D02*
G37*
%LPC*%
G36*
X453953Y215134D02*
X446047D01*
Y207228D01*
X453953D01*
Y215134D01*
D02*
G37*
G36*
X390709Y220923D02*
X221654D01*
X221029Y220798D01*
X220500Y220445D01*
X178768Y178713D01*
X178414Y178183D01*
X178290Y177559D01*
Y173585D01*
X178156Y173530D01*
X177425Y172969D01*
X176864Y172238D01*
X176511Y171386D01*
X176391Y170473D01*
X176511Y169559D01*
X176864Y168707D01*
X177425Y167976D01*
X178156Y167415D01*
X179008Y167062D01*
X179921Y166942D01*
X180835Y167062D01*
X181686Y167415D01*
X182418Y167976D01*
X182978Y168707D01*
X183331Y169559D01*
X183451Y170473D01*
X183331Y171386D01*
X182978Y172238D01*
X182418Y172969D01*
X181686Y173530D01*
X181553Y173585D01*
Y176883D01*
X222329Y217660D01*
X258067D01*
X258075Y217163D01*
X257490Y217047D01*
X256993Y216715D01*
X237244Y196966D01*
X236780Y197158D01*
X235748Y197294D01*
X234716Y197158D01*
X233755Y196760D01*
X232929Y196126D01*
X232295Y195300D01*
X231897Y194339D01*
X231761Y193307D01*
X231897Y192275D01*
X232295Y191314D01*
X232834Y190612D01*
X232656Y190112D01*
X231106D01*
X229407Y191811D01*
X229599Y192275D01*
X229735Y193307D01*
X229599Y194339D01*
X229201Y195300D01*
X228567Y196126D01*
X227742Y196760D01*
X226780Y197158D01*
X225748Y197294D01*
X224716Y197158D01*
X223755Y196760D01*
X222929Y196126D01*
X222295Y195300D01*
X221897Y194339D01*
X221761Y193307D01*
X221897Y192275D01*
X222295Y191314D01*
X222929Y190488D01*
X223755Y189854D01*
X224716Y189456D01*
X225748Y189320D01*
X226780Y189456D01*
X227244Y189648D01*
X229391Y187501D01*
X229887Y187170D01*
X230472Y187053D01*
X238976D01*
X239562Y187170D01*
X240058Y187501D01*
X242377Y189820D01*
X242594Y190145D01*
X243110Y190281D01*
X243209Y190273D01*
X243755Y189854D01*
X244716Y189456D01*
X245748Y189320D01*
X246780Y189456D01*
X247742Y189854D01*
X248567Y190488D01*
X249201Y191314D01*
X249599Y192275D01*
X249735Y193307D01*
X249599Y194339D01*
X249201Y195300D01*
X248567Y196126D01*
X247742Y196760D01*
X246780Y197158D01*
X246243Y197229D01*
X246063Y197757D01*
X247171Y198864D01*
X247244D01*
X247829Y198981D01*
X248325Y199312D01*
X257326Y208313D01*
X326926D01*
X330415Y204824D01*
X330911Y204493D01*
X331496Y204376D01*
X335727D01*
X335905Y203876D01*
X335366Y203174D01*
X334968Y202213D01*
X334832Y201181D01*
X334968Y200149D01*
X335366Y199188D01*
X336000Y198362D01*
X336825Y197728D01*
X337787Y197330D01*
X338819Y197194D01*
X339851Y197330D01*
X340812Y197728D01*
X341638Y198362D01*
X342272Y199188D01*
X342670Y200149D01*
X342806Y201181D01*
X342670Y202213D01*
X342272Y203174D01*
X341733Y203876D01*
X341911Y204376D01*
X343543D01*
X344129Y204493D01*
X344625Y204824D01*
X347323Y207522D01*
X347787Y207330D01*
X348819Y207194D01*
X349851Y207330D01*
X350812Y207728D01*
X351638Y208362D01*
X352272Y209188D01*
X352670Y210149D01*
X352806Y211181D01*
X352670Y212213D01*
X352272Y213175D01*
X351942Y213604D01*
X352188Y214105D01*
X353733D01*
X355160Y212677D01*
X354968Y212213D01*
X354832Y211181D01*
X354968Y210149D01*
X355366Y209188D01*
X356000Y208362D01*
X356825Y207728D01*
X357787Y207330D01*
X358819Y207194D01*
X359851Y207330D01*
X360812Y207728D01*
X361638Y208362D01*
X362272Y209188D01*
X362670Y210149D01*
X362806Y211181D01*
X362670Y212213D01*
X362272Y213175D01*
X361638Y214000D01*
X360812Y214634D01*
X359851Y215032D01*
X358819Y215168D01*
X357787Y215032D01*
X357323Y214840D01*
X355448Y216715D01*
X354951Y217047D01*
X354366Y217163D01*
X354374Y217660D01*
X390033D01*
X395118Y212575D01*
X394968Y212213D01*
X394832Y211181D01*
X394968Y210149D01*
X395366Y209188D01*
X396000Y208362D01*
X396826Y207728D01*
X397787Y207330D01*
X398819Y207194D01*
X399851Y207330D01*
X400812Y207728D01*
X401638Y208362D01*
X402272Y209188D01*
X402670Y210149D01*
X402806Y211181D01*
X402670Y212213D01*
X402272Y213175D01*
X401638Y214000D01*
X400812Y214634D01*
X399851Y215032D01*
X398819Y215168D01*
X397787Y215032D01*
X397425Y214882D01*
X391862Y220445D01*
X391333Y220798D01*
X390709Y220923D01*
D02*
G37*
G36*
X388819Y215168D02*
X387787Y215032D01*
X386825Y214634D01*
X386000Y214000D01*
X385366Y213175D01*
X384968Y212213D01*
X384832Y211181D01*
X384968Y210149D01*
X385366Y209188D01*
X386000Y208362D01*
X386825Y207728D01*
X387787Y207330D01*
X388819Y207194D01*
X389851Y207330D01*
X390812Y207728D01*
X391638Y208362D01*
X392272Y209188D01*
X392670Y210149D01*
X392806Y211181D01*
X392670Y212213D01*
X392272Y213175D01*
X391638Y214000D01*
X390812Y214634D01*
X389851Y215032D01*
X388819Y215168D01*
D02*
G37*
G36*
X378819D02*
X377787Y215032D01*
X376825Y214634D01*
X376000Y214000D01*
X375366Y213175D01*
X374968Y212213D01*
X374832Y211181D01*
X374968Y210149D01*
X375366Y209188D01*
X376000Y208362D01*
X376825Y207728D01*
X377787Y207330D01*
X378819Y207194D01*
X379851Y207330D01*
X380812Y207728D01*
X381638Y208362D01*
X382272Y209188D01*
X382670Y210149D01*
X382806Y211181D01*
X382670Y212213D01*
X382272Y213175D01*
X381638Y214000D01*
X380812Y214634D01*
X379851Y215032D01*
X378819Y215168D01*
D02*
G37*
G36*
X368819D02*
X367787Y215032D01*
X366826Y214634D01*
X366000Y214000D01*
X365366Y213175D01*
X364968Y212213D01*
X364832Y211181D01*
X364968Y210149D01*
X365366Y209188D01*
X366000Y208362D01*
X366826Y207728D01*
X367787Y207330D01*
X368819Y207194D01*
X369851Y207330D01*
X370812Y207728D01*
X371638Y208362D01*
X372272Y209188D01*
X372670Y210149D01*
X372806Y211181D01*
X372670Y212213D01*
X372272Y213175D01*
X371638Y214000D01*
X370812Y214634D01*
X369851Y215032D01*
X368819Y215168D01*
D02*
G37*
G36*
X278847Y207008D02*
Y204043D01*
X281811D01*
X281756Y204457D01*
X281404Y205308D01*
X280843Y206040D01*
X280112Y206601D01*
X279260Y206953D01*
X278847Y207008D01*
D02*
G37*
G36*
X277847D02*
X277433Y206953D01*
X276581Y206601D01*
X275850Y206040D01*
X275289Y205308D01*
X274937Y204457D01*
X274882Y204043D01*
X277847D01*
Y207008D01*
D02*
G37*
G36*
X359319Y205102D02*
Y201681D01*
X362740D01*
X362670Y202213D01*
X362272Y203174D01*
X361638Y204000D01*
X360812Y204634D01*
X359851Y205032D01*
X359319Y205102D01*
D02*
G37*
G36*
X358319D02*
X357787Y205032D01*
X356825Y204634D01*
X356000Y204000D01*
X355366Y203174D01*
X354968Y202213D01*
X354898Y201681D01*
X358319D01*
Y205102D01*
D02*
G37*
G36*
X281811Y203043D02*
X278847D01*
Y200079D01*
X279260Y200133D01*
X280112Y200486D01*
X280843Y201047D01*
X281404Y201778D01*
X281756Y202630D01*
X281811Y203043D01*
D02*
G37*
G36*
X277847D02*
X274882D01*
X274937Y202630D01*
X275289Y201778D01*
X275850Y201047D01*
X276581Y200486D01*
X277433Y200133D01*
X277847Y200079D01*
Y203043D01*
D02*
G37*
G36*
X362740Y200681D02*
X359319D01*
Y197260D01*
X359851Y197330D01*
X360812Y197728D01*
X361638Y198362D01*
X362272Y199188D01*
X362670Y200149D01*
X362740Y200681D01*
D02*
G37*
G36*
X358319D02*
X354898D01*
X354968Y200149D01*
X355366Y199188D01*
X356000Y198362D01*
X356825Y197728D01*
X357787Y197330D01*
X358319Y197260D01*
Y200681D01*
D02*
G37*
G36*
X450000Y205168D02*
X448968Y205032D01*
X448007Y204634D01*
X447181Y204000D01*
X446547Y203174D01*
X446149Y202213D01*
X446013Y201181D01*
X446149Y200149D01*
X446547Y199188D01*
X447181Y198362D01*
X448007Y197728D01*
X448968Y197330D01*
X450000Y197194D01*
X451032Y197330D01*
X451993Y197728D01*
X452819Y198362D01*
X453453Y199188D01*
X453851Y200149D01*
X453987Y201181D01*
X453851Y202213D01*
X453453Y203174D01*
X452819Y204000D01*
X451993Y204634D01*
X451032Y205032D01*
X450000Y205168D01*
D02*
G37*
G36*
X398819D02*
X397787Y205032D01*
X396826Y204634D01*
X396000Y204000D01*
X395366Y203174D01*
X394968Y202213D01*
X394832Y201181D01*
X394968Y200149D01*
X395366Y199188D01*
X396000Y198362D01*
X396826Y197728D01*
X397787Y197330D01*
X398819Y197194D01*
X399851Y197330D01*
X400812Y197728D01*
X401638Y198362D01*
X402272Y199188D01*
X402670Y200149D01*
X402806Y201181D01*
X402670Y202213D01*
X402272Y203174D01*
X401638Y204000D01*
X400812Y204634D01*
X399851Y205032D01*
X398819Y205168D01*
D02*
G37*
G36*
X388819D02*
X387787Y205032D01*
X386825Y204634D01*
X386000Y204000D01*
X385366Y203174D01*
X384968Y202213D01*
X384832Y201181D01*
X384968Y200149D01*
X385366Y199188D01*
X386000Y198362D01*
X386825Y197728D01*
X387787Y197330D01*
X388819Y197194D01*
X389851Y197330D01*
X390812Y197728D01*
X391638Y198362D01*
X392272Y199188D01*
X392670Y200149D01*
X392806Y201181D01*
X392670Y202213D01*
X392272Y203174D01*
X391638Y204000D01*
X390812Y204634D01*
X389851Y205032D01*
X388819Y205168D01*
D02*
G37*
G36*
X378819D02*
X377787Y205032D01*
X376825Y204634D01*
X376000Y204000D01*
X375366Y203174D01*
X374968Y202213D01*
X374832Y201181D01*
X374968Y200149D01*
X375366Y199188D01*
X376000Y198362D01*
X376825Y197728D01*
X377787Y197330D01*
X378819Y197194D01*
X379851Y197330D01*
X380812Y197728D01*
X381638Y198362D01*
X382272Y199188D01*
X382670Y200149D01*
X382806Y201181D01*
X382670Y202213D01*
X382272Y203174D01*
X381638Y204000D01*
X380812Y204634D01*
X379851Y205032D01*
X378819Y205168D01*
D02*
G37*
G36*
X368819D02*
X367787Y205032D01*
X366826Y204634D01*
X366000Y204000D01*
X365366Y203174D01*
X364968Y202213D01*
X364832Y201181D01*
X364968Y200149D01*
X365366Y199188D01*
X366000Y198362D01*
X366826Y197728D01*
X367787Y197330D01*
X368819Y197194D01*
X369851Y197330D01*
X370812Y197728D01*
X371638Y198362D01*
X372272Y199188D01*
X372670Y200149D01*
X372806Y201181D01*
X372670Y202213D01*
X372272Y203174D01*
X371638Y204000D01*
X370812Y204634D01*
X369851Y205032D01*
X368819Y205168D01*
D02*
G37*
G36*
X348819D02*
X347787Y205032D01*
X346826Y204634D01*
X346000Y204000D01*
X345366Y203174D01*
X344968Y202213D01*
X344832Y201181D01*
X344968Y200149D01*
X345366Y199188D01*
X346000Y198362D01*
X346826Y197728D01*
X347787Y197330D01*
X348819Y197194D01*
X349851Y197330D01*
X350812Y197728D01*
X351638Y198362D01*
X352272Y199188D01*
X352670Y200149D01*
X352806Y201181D01*
X352670Y202213D01*
X352272Y203174D01*
X351638Y204000D01*
X350812Y204634D01*
X349851Y205032D01*
X348819Y205168D01*
D02*
G37*
G36*
X216248Y197228D02*
Y193807D01*
X219669D01*
X219599Y194339D01*
X219201Y195300D01*
X218567Y196126D01*
X217741Y196760D01*
X216780Y197158D01*
X216248Y197228D01*
D02*
G37*
G36*
X168925D02*
Y193807D01*
X172346D01*
X172276Y194339D01*
X171878Y195300D01*
X171244Y196126D01*
X170419Y196760D01*
X169457Y197158D01*
X168925Y197228D01*
D02*
G37*
G36*
X215248D02*
X214716Y197158D01*
X213755Y196760D01*
X212929Y196126D01*
X212295Y195300D01*
X211897Y194339D01*
X211827Y193807D01*
X215248D01*
Y197228D01*
D02*
G37*
G36*
X167925D02*
X167393Y197158D01*
X166432Y196760D01*
X165606Y196126D01*
X164972Y195300D01*
X164574Y194339D01*
X164504Y193807D01*
X167925D01*
Y197228D01*
D02*
G37*
G36*
X450500Y195102D02*
Y191681D01*
X453921D01*
X453851Y192213D01*
X453453Y193175D01*
X452819Y194000D01*
X451993Y194634D01*
X451032Y195032D01*
X450500Y195102D01*
D02*
G37*
G36*
X449500Y195102D02*
X448968Y195032D01*
X448007Y194634D01*
X447181Y194000D01*
X446547Y193175D01*
X446149Y192213D01*
X446079Y191681D01*
X449500D01*
Y195102D01*
D02*
G37*
G36*
X219669Y192807D02*
X216248D01*
Y189386D01*
X216780Y189456D01*
X217741Y189854D01*
X218567Y190488D01*
X219201Y191314D01*
X219599Y192275D01*
X219669Y192807D01*
D02*
G37*
G36*
X172346D02*
X168925D01*
Y189386D01*
X169457Y189456D01*
X170419Y189854D01*
X171244Y190488D01*
X171878Y191314D01*
X172276Y192275D01*
X172346Y192807D01*
D02*
G37*
G36*
X215248D02*
X211827D01*
X211897Y192275D01*
X212295Y191314D01*
X212929Y190488D01*
X213755Y189854D01*
X214716Y189456D01*
X215248Y189386D01*
Y192807D01*
D02*
G37*
G36*
X167925D02*
X164504D01*
X164574Y192275D01*
X164972Y191314D01*
X165606Y190488D01*
X166432Y189854D01*
X167393Y189456D01*
X167925Y189386D01*
Y192807D01*
D02*
G37*
G36*
X269701Y197260D02*
X261795D01*
Y189354D01*
X269701D01*
Y197260D01*
D02*
G37*
G36*
X182378D02*
X174472D01*
Y189354D01*
X182378D01*
Y197260D01*
D02*
G37*
G36*
X255748Y197294D02*
X254716Y197158D01*
X253755Y196760D01*
X252929Y196126D01*
X252295Y195300D01*
X251897Y194339D01*
X251761Y193307D01*
X251897Y192275D01*
X252295Y191314D01*
X252929Y190488D01*
X253755Y189854D01*
X254716Y189456D01*
X255748Y189320D01*
X256780Y189456D01*
X257741Y189854D01*
X258567Y190488D01*
X259201Y191314D01*
X259599Y192275D01*
X259735Y193307D01*
X259599Y194339D01*
X259201Y195300D01*
X258567Y196126D01*
X257741Y196760D01*
X256780Y197158D01*
X255748Y197294D01*
D02*
G37*
G36*
X158425D02*
X157393Y197158D01*
X156432Y196760D01*
X155606Y196126D01*
X154973Y195300D01*
X154574Y194339D01*
X154438Y193307D01*
X154574Y192275D01*
X154973Y191314D01*
X155606Y190488D01*
X156432Y189854D01*
X157393Y189456D01*
X158425Y189320D01*
X159457Y189456D01*
X160419Y189854D01*
X161244Y190488D01*
X161878Y191314D01*
X162276Y192275D01*
X162412Y193307D01*
X162276Y194339D01*
X161878Y195300D01*
X161244Y196126D01*
X160419Y196760D01*
X159457Y197158D01*
X158425Y197294D01*
D02*
G37*
G36*
X148425D02*
X147393Y197158D01*
X146432Y196760D01*
X145606Y196126D01*
X144973Y195300D01*
X144574Y194339D01*
X144438Y193307D01*
X144574Y192275D01*
X144973Y191314D01*
X145606Y190488D01*
X146432Y189854D01*
X147393Y189456D01*
X148425Y189320D01*
X149457Y189456D01*
X150419Y189854D01*
X151244Y190488D01*
X151878Y191314D01*
X152276Y192275D01*
X152412Y193307D01*
X152276Y194339D01*
X151878Y195300D01*
X151244Y196126D01*
X150419Y196760D01*
X149457Y197158D01*
X148425Y197294D01*
D02*
G37*
G36*
X138425D02*
X137393Y197158D01*
X136432Y196760D01*
X135606Y196126D01*
X134973Y195300D01*
X134574Y194339D01*
X134438Y193307D01*
X134574Y192275D01*
X134973Y191314D01*
X135606Y190488D01*
X136432Y189854D01*
X137393Y189456D01*
X138425Y189320D01*
X139457Y189456D01*
X140419Y189854D01*
X141244Y190488D01*
X141878Y191314D01*
X142276Y192275D01*
X142412Y193307D01*
X142276Y194339D01*
X141878Y195300D01*
X141244Y196126D01*
X140419Y196760D01*
X139457Y197158D01*
X138425Y197294D01*
D02*
G37*
G36*
X128425D02*
X127393Y197158D01*
X126432Y196760D01*
X125606Y196126D01*
X124972Y195300D01*
X124574Y194339D01*
X124438Y193307D01*
X124574Y192275D01*
X124972Y191314D01*
X125606Y190488D01*
X126432Y189854D01*
X127393Y189456D01*
X128425Y189320D01*
X129457Y189456D01*
X130419Y189854D01*
X131244Y190488D01*
X131878Y191314D01*
X132276Y192275D01*
X132412Y193307D01*
X132276Y194339D01*
X131878Y195300D01*
X131244Y196126D01*
X130419Y196760D01*
X129457Y197158D01*
X128425Y197294D01*
D02*
G37*
G36*
X449500Y190681D02*
X446079D01*
X446149Y190149D01*
X446547Y189188D01*
X447181Y188362D01*
X448007Y187728D01*
X448968Y187330D01*
X449500Y187260D01*
Y190681D01*
D02*
G37*
G36*
X453921D02*
X450500D01*
Y187260D01*
X451032Y187330D01*
X451993Y187728D01*
X452819Y188362D01*
X453453Y189188D01*
X453851Y190149D01*
X453921Y190681D01*
D02*
G37*
G36*
X350894Y182598D02*
Y179634D01*
X353858D01*
X353804Y180048D01*
X353451Y180899D01*
X352890Y181630D01*
X352159Y182191D01*
X351307Y182544D01*
X350894Y182598D01*
D02*
G37*
G36*
X349894D02*
X349480Y182544D01*
X348629Y182191D01*
X347898Y181630D01*
X347337Y180899D01*
X346984Y180048D01*
X346929Y179634D01*
X349894D01*
Y182598D01*
D02*
G37*
G36*
X158768Y181023D02*
Y178059D01*
X161732D01*
X161678Y178473D01*
X161325Y179324D01*
X160764Y180055D01*
X160033Y180616D01*
X159181Y180969D01*
X158768Y181023D01*
D02*
G37*
G36*
X157768D02*
X157354Y180969D01*
X156503Y180616D01*
X155772Y180055D01*
X155210Y179324D01*
X154858Y178473D01*
X154803Y178059D01*
X157768D01*
Y181023D01*
D02*
G37*
G36*
X353858Y178634D02*
X350894D01*
Y175670D01*
X351307Y175724D01*
X352159Y176077D01*
X352890Y176638D01*
X353451Y177369D01*
X353804Y178220D01*
X353858Y178634D01*
D02*
G37*
G36*
X349894D02*
X346929D01*
X346984Y178220D01*
X347337Y177369D01*
X347898Y176638D01*
X348629Y176077D01*
X349480Y175724D01*
X349894Y175670D01*
Y178634D01*
D02*
G37*
G36*
X161732Y177059D02*
X158768D01*
Y174095D01*
X159181Y174149D01*
X160033Y174502D01*
X160764Y175063D01*
X161325Y175794D01*
X161678Y176645D01*
X161732Y177059D01*
D02*
G37*
G36*
X157768D02*
X154803D01*
X154858Y176645D01*
X155210Y175794D01*
X155772Y175063D01*
X156503Y174502D01*
X157354Y174149D01*
X157768Y174095D01*
Y177059D01*
D02*
G37*
G36*
X216248Y175118D02*
Y172153D01*
X219212D01*
X219158Y172567D01*
X218805Y173419D01*
X218244Y174150D01*
X217513Y174711D01*
X216662Y175064D01*
X216248Y175118D01*
D02*
G37*
G36*
X215248D02*
X214834Y175064D01*
X213983Y174711D01*
X213252Y174150D01*
X212691Y173419D01*
X212338Y172567D01*
X212284Y172153D01*
X215248D01*
Y175118D01*
D02*
G37*
G36*
X219212Y171153D02*
X216248D01*
Y168189D01*
X216662Y168244D01*
X217513Y168596D01*
X218244Y169157D01*
X218805Y169888D01*
X219158Y170740D01*
X219212Y171153D01*
D02*
G37*
G36*
X215248D02*
X212284D01*
X212338Y170740D01*
X212691Y169888D01*
X213252Y169157D01*
X213983Y168596D01*
X214834Y168244D01*
X215248Y168189D01*
Y171153D01*
D02*
G37*
G36*
X283965Y170000D02*
Y167035D01*
X286929D01*
X286875Y167449D01*
X286522Y168300D01*
X285961Y169032D01*
X285230Y169593D01*
X284378Y169945D01*
X283965Y170000D01*
D02*
G37*
G36*
X282965D02*
X282551Y169945D01*
X281699Y169593D01*
X280968Y169032D01*
X280407Y168300D01*
X280055Y167449D01*
X280000Y167035D01*
X282965D01*
Y170000D01*
D02*
G37*
G36*
X423228Y187648D02*
X421527Y187514D01*
X419868Y187115D01*
X418291Y186462D01*
X416836Y185571D01*
X415538Y184462D01*
X414429Y183164D01*
X413538Y181709D01*
X412885Y180132D01*
X412486Y178473D01*
X412352Y176772D01*
X412486Y175070D01*
X412885Y173411D01*
X413538Y171834D01*
X414429Y170379D01*
X415538Y169081D01*
X416836Y167973D01*
X418291Y167081D01*
X419868Y166428D01*
X421527Y166030D01*
X423228Y165896D01*
X424930Y166030D01*
X426589Y166428D01*
X428166Y167081D01*
X429621Y167973D01*
X430919Y169081D01*
X432027Y170379D01*
X432919Y171834D01*
X433572Y173411D01*
X433970Y175070D01*
X434104Y176772D01*
X433970Y178473D01*
X433572Y180132D01*
X432919Y181709D01*
X432027Y183164D01*
X430919Y184462D01*
X429621Y185571D01*
X428166Y186462D01*
X426589Y187115D01*
X424930Y187514D01*
X423228Y187648D01*
D02*
G37*
G36*
X286929Y166035D02*
X283965D01*
Y163071D01*
X284378Y163126D01*
X285230Y163478D01*
X285961Y164039D01*
X286522Y164770D01*
X286875Y165622D01*
X286929Y166035D01*
D02*
G37*
G36*
X282965D02*
X280000D01*
X280055Y165622D01*
X280407Y164770D01*
X280968Y164039D01*
X281699Y163478D01*
X282551Y163126D01*
X282965Y163071D01*
Y166035D01*
D02*
G37*
G36*
X155921Y169465D02*
X148016D01*
Y161559D01*
X155921D01*
Y169465D01*
D02*
G37*
G36*
X423335Y157008D02*
Y154043D01*
X426299D01*
X426245Y154457D01*
X425892Y155308D01*
X425331Y156040D01*
X424600Y156600D01*
X423748Y156953D01*
X423335Y157008D01*
D02*
G37*
G36*
X422335D02*
X421921Y156953D01*
X421069Y156600D01*
X420338Y156040D01*
X419777Y155308D01*
X419425Y154457D01*
X419370Y154043D01*
X422335D01*
Y157008D01*
D02*
G37*
G36*
X151969Y159499D02*
X150937Y159363D01*
X149975Y158965D01*
X149149Y158331D01*
X148516Y157505D01*
X148117Y156544D01*
X147982Y155512D01*
X148117Y154480D01*
X148516Y153518D01*
X149149Y152693D01*
X149975Y152059D01*
X150937Y151661D01*
X151969Y151525D01*
X153000Y151661D01*
X153962Y152059D01*
X154788Y152693D01*
X155421Y153518D01*
X155819Y154480D01*
X155955Y155512D01*
X155819Y156544D01*
X155421Y157505D01*
X154788Y158331D01*
X153962Y158965D01*
X153000Y159363D01*
X151969Y159499D01*
D02*
G37*
G36*
X426299Y153043D02*
X423335D01*
Y150079D01*
X423748Y150133D01*
X424600Y150486D01*
X425331Y151047D01*
X425892Y151778D01*
X426245Y152630D01*
X426299Y153043D01*
D02*
G37*
G36*
X422335D02*
X419370D01*
X419425Y152630D01*
X419777Y151778D01*
X420338Y151047D01*
X421069Y150486D01*
X421921Y150133D01*
X422335Y150079D01*
Y153043D01*
D02*
G37*
G36*
X345382Y152677D02*
Y149713D01*
X348346D01*
X348292Y150126D01*
X347939Y150978D01*
X347378Y151709D01*
X346647Y152270D01*
X345796Y152622D01*
X345382Y152677D01*
D02*
G37*
G36*
X344382D02*
X343968Y152622D01*
X343117Y152270D01*
X342386Y151709D01*
X341825Y150978D01*
X341472Y150126D01*
X341418Y149713D01*
X344382D01*
Y152677D01*
D02*
G37*
G36*
X348346Y148713D02*
X345382D01*
Y145748D01*
X345796Y145803D01*
X346647Y146155D01*
X347378Y146716D01*
X347939Y147448D01*
X348292Y148299D01*
X348346Y148713D01*
D02*
G37*
G36*
X344382D02*
X341418D01*
X341472Y148299D01*
X341825Y147448D01*
X342386Y146716D01*
X343117Y146155D01*
X343968Y145803D01*
X344382Y145748D01*
Y148713D01*
D02*
G37*
G36*
X169685Y160482D02*
X167984Y160348D01*
X166324Y159950D01*
X164747Y159297D01*
X163292Y158405D01*
X161995Y157297D01*
X160886Y155999D01*
X159994Y154544D01*
X159341Y152967D01*
X158943Y151308D01*
X158809Y149606D01*
X158943Y147905D01*
X159341Y146245D01*
X159994Y144669D01*
X160886Y143213D01*
X161995Y141916D01*
X163292Y140807D01*
X164747Y139916D01*
X166324Y139263D01*
X167984Y138864D01*
X169685Y138730D01*
X171386Y138864D01*
X173046Y139263D01*
X174623Y139916D01*
X176078Y140807D01*
X177376Y141916D01*
X178484Y143213D01*
X179376Y144669D01*
X180029Y146245D01*
X180427Y147905D01*
X180561Y149606D01*
X180427Y151308D01*
X180029Y152967D01*
X179376Y154544D01*
X178484Y155999D01*
X177376Y157297D01*
X176078Y158405D01*
X174623Y159297D01*
X173046Y159950D01*
X171386Y160348D01*
X169685Y160482D01*
D02*
G37*
G36*
X307087Y162192D02*
X306173Y162071D01*
X305322Y161719D01*
X304590Y161158D01*
X304029Y160426D01*
X303677Y159575D01*
X303556Y158661D01*
X303677Y157748D01*
X304029Y156896D01*
X304538Y156234D01*
Y149606D01*
X304732Y148631D01*
X305284Y147804D01*
X312229Y140859D01*
X312338Y140031D01*
X312691Y139180D01*
X313252Y138449D01*
X313983Y137888D01*
X314834Y137535D01*
X315748Y137415D01*
X316662Y137535D01*
X317513Y137888D01*
X318244Y138449D01*
X318805Y139180D01*
X319158Y140031D01*
X319278Y140945D01*
X319158Y141859D01*
X318805Y142710D01*
X318244Y143441D01*
X317513Y144002D01*
X316662Y144355D01*
X315834Y144464D01*
X309636Y150662D01*
Y156234D01*
X310144Y156896D01*
X310496Y157748D01*
X310617Y158661D01*
X310496Y159575D01*
X310144Y160426D01*
X309583Y161158D01*
X308852Y161719D01*
X308000Y162071D01*
X307087Y162192D01*
D02*
G37*
G36*
X176091Y137716D02*
Y134752D01*
X179055D01*
X179000Y135166D01*
X178648Y136017D01*
X178087Y136748D01*
X177356Y137309D01*
X176504Y137662D01*
X176091Y137716D01*
D02*
G37*
G36*
X175091D02*
X174677Y137662D01*
X173826Y137309D01*
X173094Y136748D01*
X172533Y136017D01*
X172181Y135166D01*
X172126Y134752D01*
X175091D01*
Y137716D01*
D02*
G37*
G36*
X179055Y133752D02*
X176091D01*
Y130788D01*
X176504Y130842D01*
X177356Y131195D01*
X178087Y131756D01*
X178648Y132487D01*
X179000Y133338D01*
X179055Y133752D01*
D02*
G37*
G36*
X175091D02*
X172126D01*
X172181Y133338D01*
X172533Y132487D01*
X173094Y131756D01*
X173826Y131195D01*
X174677Y130842D01*
X175091Y130788D01*
Y133752D01*
D02*
G37*
G36*
X230421Y130236D02*
Y127272D01*
X233386D01*
X233331Y127685D01*
X232979Y128537D01*
X232417Y129268D01*
X231686Y129829D01*
X230835Y130182D01*
X230421Y130236D01*
D02*
G37*
G36*
X229421D02*
X229008Y130182D01*
X228156Y129829D01*
X227425Y129268D01*
X226864Y128537D01*
X226511Y127685D01*
X226457Y127272D01*
X229421D01*
Y130236D01*
D02*
G37*
G36*
X152520Y133956D02*
X151476Y133818D01*
X150502Y133415D01*
X149667Y132774D01*
X149026Y131939D01*
X148623Y130965D01*
X148485Y129921D01*
X148623Y128877D01*
X149026Y127904D01*
X149667Y127068D01*
X150502Y126427D01*
X151476Y126024D01*
X152520Y125887D01*
X153564Y126024D01*
X154537Y126427D01*
X155373Y127068D01*
X156014Y127904D01*
X156417Y128877D01*
X156554Y129921D01*
X156417Y130965D01*
X156014Y131939D01*
X155373Y132774D01*
X154537Y133415D01*
X153564Y133818D01*
X152520Y133956D01*
D02*
G37*
G36*
X132520D02*
X131475Y133818D01*
X130502Y133415D01*
X129667Y132774D01*
X129026Y131939D01*
X128623Y130965D01*
X128485Y129921D01*
X128623Y128877D01*
X129026Y127904D01*
X129667Y127068D01*
X130502Y126427D01*
X131475Y126024D01*
X132520Y125887D01*
X133564Y126024D01*
X134537Y126427D01*
X135372Y127068D01*
X136014Y127904D01*
X136417Y128877D01*
X136554Y129921D01*
X136417Y130965D01*
X136014Y131939D01*
X135372Y132774D01*
X134537Y133415D01*
X133564Y133818D01*
X132520Y133956D01*
D02*
G37*
G36*
X233386Y126272D02*
X230421D01*
Y123307D01*
X230835Y123362D01*
X231686Y123714D01*
X232417Y124275D01*
X232979Y125007D01*
X233331Y125858D01*
X233386Y126272D01*
D02*
G37*
G36*
X229421D02*
X226457D01*
X226511Y125858D01*
X226864Y125007D01*
X227425Y124275D01*
X228156Y123714D01*
X229008Y123362D01*
X229421Y123307D01*
Y126272D01*
D02*
G37*
G36*
X435146Y123149D02*
Y120185D01*
X438110D01*
X438056Y120599D01*
X437703Y121450D01*
X437142Y122181D01*
X436411Y122742D01*
X435559Y123095D01*
X435146Y123149D01*
D02*
G37*
G36*
X434146D02*
X433732Y123095D01*
X432881Y122742D01*
X432149Y122181D01*
X431588Y121450D01*
X431236Y120599D01*
X431181Y120185D01*
X434146D01*
Y123149D01*
D02*
G37*
G36*
X438110Y119185D02*
X435146D01*
Y116221D01*
X435559Y116275D01*
X436411Y116628D01*
X437142Y117189D01*
X437703Y117920D01*
X438056Y118771D01*
X438110Y119185D01*
D02*
G37*
G36*
X434146D02*
X431181D01*
X431236Y118771D01*
X431588Y117920D01*
X432149Y117189D01*
X432881Y116628D01*
X433732Y116275D01*
X434146Y116221D01*
Y119185D01*
D02*
G37*
%LPD*%
G36*
X334866Y207435D02*
X332130D01*
X328641Y210924D01*
X328144Y211256D01*
X327559Y211372D01*
X256693D01*
X256680Y211369D01*
X256434Y211830D01*
X258708Y214105D01*
X334866D01*
Y207435D01*
D02*
G37*
D10*
X343543Y205906D02*
X348819Y211181D01*
X331496Y205906D02*
X343543D01*
X327559Y209842D02*
X331496Y205906D01*
X256693Y209842D02*
X327559D01*
X247244Y200394D02*
X256693Y209842D01*
X246537Y200394D02*
X247244D01*
X241295Y195151D02*
X246537Y200394D01*
X241295Y190902D02*
Y195151D01*
X238976Y188583D02*
X241295Y190902D01*
X230472Y188583D02*
X238976D01*
X225748Y193307D02*
X230472Y188583D01*
X354366Y215634D02*
X358819Y211181D01*
X258075Y215634D02*
X354366D01*
X235748Y193307D02*
X258075Y215634D01*
D45*
X390709Y219291D02*
X398819Y211181D01*
X221654Y219291D02*
X390709D01*
X179921Y177559D02*
X221654Y219291D01*
X179921Y170473D02*
Y177559D01*
D46*
X307087Y149606D02*
X315748Y140945D01*
X307087Y149606D02*
Y158661D01*
D47*
X423228Y176772D02*
D03*
X169685Y149606D02*
D03*
D48*
X338819Y211181D02*
D03*
X265748Y193307D02*
D03*
X178425D02*
D03*
D49*
X338819Y201181D02*
D03*
X348819Y211181D02*
D03*
Y201181D02*
D03*
X358819Y211181D02*
D03*
Y201181D02*
D03*
X368819Y211181D02*
D03*
Y201181D02*
D03*
X378819Y211181D02*
D03*
Y201181D02*
D03*
X388819Y211181D02*
D03*
Y201181D02*
D03*
X398819Y211181D02*
D03*
Y201181D02*
D03*
X450000D02*
D03*
Y191181D02*
D03*
X215748Y193307D02*
D03*
X225748D02*
D03*
X235748D02*
D03*
X245748D02*
D03*
X255748D02*
D03*
X128425D02*
D03*
X138425D02*
D03*
X148425D02*
D03*
X158425D02*
D03*
X168425D02*
D03*
X151969Y155512D02*
D03*
D50*
X152520Y129921D02*
D03*
X132520D02*
D03*
D51*
X450000Y211181D02*
D03*
X151969Y165512D02*
D03*
D52*
X179921Y170473D02*
D03*
X315748Y140945D02*
D03*
X307087Y158661D02*
D03*
X215748Y171653D02*
D03*
X434646Y119685D02*
D03*
X350394Y179134D02*
D03*
X175591Y134252D02*
D03*
X278346Y203543D02*
D03*
X283465Y166535D02*
D03*
X422835Y153543D02*
D03*
X229921Y126772D02*
D03*
X344882Y149213D02*
D03*
X158268Y177559D02*
D03*
M02*
