G04*
G04 #@! TF.GenerationSoftware,Altium Limited,Altium Designer,18.0.9 (584)*
G04*
G04 Layer_Color=16711935*
%FSLAX25Y25*%
%MOIN*%
G70*
G01*
G75*
%ADD28C,0.20485*%
%ADD29R,0.06706X0.06706*%
%ADD30C,0.06706*%
%ADD31C,0.06800*%
%ADD32R,0.06706X0.06706*%
%ADD33C,0.05800*%
D28*
X423228Y176772D02*
D03*
X169685Y149606D02*
D03*
D29*
X338819Y211181D02*
D03*
X265748Y193307D02*
D03*
X178425D02*
D03*
D30*
X338819Y201181D02*
D03*
X348819Y211181D02*
D03*
Y201181D02*
D03*
X358819Y211181D02*
D03*
Y201181D02*
D03*
X368819Y211181D02*
D03*
Y201181D02*
D03*
X378819Y211181D02*
D03*
Y201181D02*
D03*
X388819Y211181D02*
D03*
Y201181D02*
D03*
X398819Y211181D02*
D03*
Y201181D02*
D03*
X450000D02*
D03*
Y191181D02*
D03*
X215748Y193307D02*
D03*
X225748D02*
D03*
X235748D02*
D03*
X245748D02*
D03*
X255748D02*
D03*
X128425D02*
D03*
X138425D02*
D03*
X148425D02*
D03*
X158425D02*
D03*
X168425D02*
D03*
X151969Y155512D02*
D03*
D31*
X152520Y129921D02*
D03*
X132520D02*
D03*
D32*
X450000Y211181D02*
D03*
X151969Y165512D02*
D03*
D33*
X179921Y170473D02*
D03*
X315748Y140945D02*
D03*
X307087Y158661D02*
D03*
X215748Y171653D02*
D03*
X434646Y119685D02*
D03*
X350394Y179134D02*
D03*
X175591Y134252D02*
D03*
X278346Y203543D02*
D03*
X283465Y166535D02*
D03*
X422835Y153543D02*
D03*
X229921Y126772D02*
D03*
X344882Y149213D02*
D03*
X158268Y177559D02*
D03*
M02*
