G04*
G04 #@! TF.GenerationSoftware,Altium Limited,Altium Designer,18.0.9 (584)*
G04*
G04 Layer_Color=16711935*
%FSLAX25Y25*%
%MOIN*%
G70*
G01*
G75*
%ADD10C,0.01000*%
%ADD13C,0.00394*%
%ADD55C,0.00000*%
%ADD56C,0.00100*%
D10*
X373748Y137894D02*
G03*
X373748Y137894I-500J0D01*
G01*
D13*
X326220Y121811D02*
Y148268D01*
X299764Y121811D02*
Y148268D01*
Y121811D02*
X326220D01*
X299764Y148268D02*
X326220D01*
X360236Y125886D02*
Y131595D01*
X368898Y125886D02*
Y131595D01*
X360236D02*
X368898D01*
X360236Y125886D02*
X368898D01*
X394783Y164764D02*
Y173031D01*
X389469Y164764D02*
Y173031D01*
X394783D01*
X389469Y164764D02*
X394783D01*
X401279Y164370D02*
Y172638D01*
X406595Y164370D02*
Y172638D01*
X401279Y164370D02*
X406595D01*
X401279Y172638D02*
X406595D01*
X150689Y178839D02*
Y184153D01*
X142421Y178839D02*
Y184153D01*
Y178839D02*
X150689D01*
X142421Y184153D02*
X150689D01*
X371752Y180512D02*
X377067D01*
X371752Y172244D02*
X377067D01*
Y180512D01*
X371752Y172244D02*
Y180512D01*
X413287Y146457D02*
Y155118D01*
X418996Y146457D02*
Y155118D01*
X413287Y146457D02*
X418996D01*
X413287Y155118D02*
X418996D01*
X389272Y146457D02*
Y155118D01*
X394980Y146457D02*
Y155118D01*
X389272Y146457D02*
X394980D01*
X389272Y155118D02*
X394980D01*
X358957Y172047D02*
Y180709D01*
X364665Y172047D02*
Y180709D01*
X358957Y172047D02*
X364665D01*
X358957Y180709D02*
X364665D01*
X281594Y158858D02*
X286910D01*
X281594Y150591D02*
X286910D01*
Y158858D01*
X281594Y150591D02*
Y158858D01*
X263878Y126378D02*
Y135039D01*
X258169Y126378D02*
Y135039D01*
X263878D01*
X258169Y126378D02*
X263878D01*
X281594Y143110D02*
X286910D01*
X281594Y134843D02*
X286910D01*
Y143110D01*
X281594Y134843D02*
Y143110D01*
X274508Y126378D02*
Y135039D01*
X268799Y126378D02*
Y135039D01*
X274508D01*
X268799Y126378D02*
X274508D01*
X252854D02*
Y135039D01*
X247146Y126378D02*
Y135039D01*
X252854D01*
X247146Y126378D02*
X252854D01*
X236319Y126181D02*
X241634D01*
X236319Y134449D02*
X241634D01*
X236319Y126181D02*
Y134449D01*
X241634Y126181D02*
Y134449D01*
X401083Y146457D02*
Y155118D01*
X406791Y146457D02*
Y155118D01*
X401083Y146457D02*
X406791D01*
X401083Y155118D02*
X406791D01*
X307087Y154449D02*
Y180197D01*
X331083Y154449D02*
Y180197D01*
X307087D02*
X331083D01*
X307087Y154449D02*
X331083D01*
X162795Y172835D02*
X174213D01*
Y166535D02*
Y172835D01*
X162795Y166535D02*
X174213D01*
X162795D02*
Y172835D01*
D55*
X366948Y140594D02*
G03*
X364548Y140594I-1200J0D01*
G01*
D56*
X213794Y120852D02*
Y147652D01*
X186994Y120852D02*
X213794D01*
X186994D02*
Y147652D01*
X213794D01*
X207094D02*
X213794Y140952D01*
X207094Y120852D02*
X213794Y127552D01*
X253164Y158254D02*
Y185054D01*
X226364Y158254D02*
X253164D01*
X226364D02*
Y185054D01*
X253164D01*
X246464D02*
X253164Y178354D01*
X246464Y158254D02*
X253164Y164953D01*
X373598Y140594D02*
Y160194D01*
X357898Y140594D02*
X373598D01*
X357898D02*
Y160194D01*
X373598D01*
X353548Y141944D02*
X357898D01*
X353548D02*
Y143844D01*
X357898D01*
Y141944D02*
Y143844D01*
X353548Y146944D02*
X357898D01*
X353548D02*
Y148844D01*
X357898D01*
Y146944D02*
Y148844D01*
X353548Y151944D02*
X357898D01*
X353548D02*
Y153844D01*
X357898D01*
Y151944D02*
Y153844D01*
X353548Y156944D02*
X357898D01*
X353548D02*
Y158844D01*
X357898D01*
Y156944D02*
Y158844D01*
X373598D02*
X377948D01*
Y156944D02*
Y158844D01*
X373598Y156944D02*
X377948D01*
X373598D02*
Y158844D01*
Y153844D02*
X377948D01*
Y151944D02*
Y153844D01*
X373598Y151944D02*
X377948D01*
X373598D02*
Y153844D01*
Y148844D02*
X377948D01*
Y146944D02*
Y148844D01*
X373598Y146944D02*
X377948D01*
X373598D02*
Y148844D01*
Y143844D02*
X377948D01*
Y141944D02*
Y143844D01*
X373598Y141944D02*
X377948D01*
X373598D02*
Y143844D01*
X430694Y151589D02*
X457494D01*
Y124789D02*
Y151589D01*
X430694Y124789D02*
X457494D01*
X430694D02*
Y151589D01*
Y144889D02*
X437395Y151589D01*
X450795D02*
X457494Y144889D01*
X309456Y190143D02*
X316156Y196843D01*
X309456Y216943D02*
X316156Y210243D01*
X289356Y216943D02*
X316156D01*
X289356Y190143D02*
Y216943D01*
Y190143D02*
X316156D01*
Y216943D01*
M02*
