G04*
G04 #@! TF.GenerationSoftware,Altium Limited,Altium Designer,18.0.9 (584)*
G04*
G04 Layer_Color=128*
%FSLAX25Y25*%
%MOIN*%
G70*
G01*
G75*
%ADD60C,0.00200*%
D60*
X416732Y176772D02*
X429724D01*
X423228Y170276D02*
Y183268D01*
X163189Y149606D02*
X176181D01*
X169685Y143110D02*
Y156102D01*
X337047Y211181D02*
X340591D01*
X338819Y209409D02*
Y212953D01*
X337047Y201181D02*
X340591D01*
X338819Y199409D02*
Y202953D01*
X347047Y211181D02*
X350591D01*
X348819Y209409D02*
Y212953D01*
X347047Y201181D02*
X350591D01*
X348819Y199409D02*
Y202953D01*
X357047Y211181D02*
X360591D01*
X358819Y209409D02*
Y212953D01*
X357047Y201181D02*
X360591D01*
X358819Y199409D02*
Y202953D01*
X367047Y211181D02*
X370591D01*
X368819Y209409D02*
Y212953D01*
X367047Y201181D02*
X370591D01*
X368819Y199409D02*
Y202953D01*
X377047Y211181D02*
X380591D01*
X378819Y209409D02*
Y212953D01*
X377047Y201181D02*
X380591D01*
X378819Y199409D02*
Y202953D01*
X387047Y211181D02*
X390591D01*
X388819Y209409D02*
Y212953D01*
X387047Y201181D02*
X390591D01*
X388819Y199409D02*
Y202953D01*
X397047Y211181D02*
X400591D01*
X398819Y209409D02*
Y212953D01*
X397047Y201181D02*
X400591D01*
X398819Y199409D02*
Y202953D01*
X150520Y129921D02*
X154520D01*
X152520Y127921D02*
Y131921D01*
X130520Y129921D02*
X134520D01*
X132520Y127921D02*
Y131921D01*
X448228Y211181D02*
X451772D01*
X450000Y209409D02*
Y212953D01*
X448228Y201181D02*
X451772D01*
X450000Y199409D02*
Y202953D01*
X448228Y191181D02*
X451772D01*
X450000Y189409D02*
Y192953D01*
X213976Y193307D02*
X217520D01*
X215748Y191535D02*
Y195079D01*
X223976Y193307D02*
X227520D01*
X225748Y191535D02*
Y195079D01*
X233976Y193307D02*
X237520D01*
X235748Y191535D02*
Y195079D01*
X243976Y193307D02*
X247520D01*
X245748Y191535D02*
Y195079D01*
X253976Y193307D02*
X257520D01*
X255748Y191535D02*
Y195079D01*
X263976Y193307D02*
X267520D01*
X265748Y191535D02*
Y195079D01*
X126654Y193307D02*
X130197D01*
X128425Y191535D02*
Y195079D01*
X136653Y193307D02*
X140197D01*
X138425Y191535D02*
Y195079D01*
X146653Y193307D02*
X150197D01*
X148425Y191535D02*
Y195079D01*
X156653Y193307D02*
X160197D01*
X158425Y191535D02*
Y195079D01*
X166654Y193307D02*
X170197D01*
X168425Y191535D02*
Y195079D01*
X176654Y193307D02*
X180197D01*
X178425Y191535D02*
Y195079D01*
X150197Y155512D02*
X153740D01*
X151969Y153740D02*
Y157283D01*
X150197Y165512D02*
X153740D01*
X151969Y163740D02*
Y167283D01*
X178521Y170473D02*
X181321D01*
X179921Y169072D02*
Y171872D01*
X314348Y140945D02*
X317148D01*
X315748Y139545D02*
Y142345D01*
X305687Y158661D02*
X308487D01*
X307087Y157261D02*
Y160061D01*
X214348Y171653D02*
X217148D01*
X215748Y170254D02*
Y173054D01*
X433246Y119685D02*
X436046D01*
X434646Y118285D02*
Y121085D01*
X348994Y179134D02*
X351794D01*
X350394Y177734D02*
Y180534D01*
X174191Y134252D02*
X176991D01*
X175591Y132852D02*
Y135652D01*
X276946Y203543D02*
X279747D01*
X278346Y202143D02*
Y204943D01*
X282065Y166535D02*
X284865D01*
X283465Y165135D02*
Y167935D01*
X421435Y153543D02*
X424235D01*
X422835Y152143D02*
Y154943D01*
X228521Y126772D02*
X231321D01*
X229921Y125372D02*
Y128172D01*
X343482Y149213D02*
X346282D01*
X344882Y147813D02*
Y150613D01*
X156868Y177559D02*
X159668D01*
X158268Y176159D02*
Y178959D01*
M02*
