M48
;Layer_Color=9474304
;FILE_FORMAT=2:5
INCH,TZ
;TYPE=PLATED
T1F00S00C0.02800
T2F00S00C0.03543
T3F00S00C0.04000
;TYPE=NON_PLATED
T4F00S00C0.12992
%
T01
X175591Y134252
X229921Y126772
X315748Y140945
X344882Y149213
X422835Y153543
X434646Y119685
X350394Y179134
X307087Y158661
X283465Y166535
X278346Y203543
X215748Y171653
X179921Y170473
X158268Y177559
T02
X151969Y155512
X338819Y201181
Y211181
X348819
Y201181
X358819
Y211181
X368819
Y201181
X378819
Y211181
X388819
Y201181
X398819
Y211181
X450000
Y201181
Y191181
X265748Y193307
X255748
X245748
X235748
X225748
X215748
X178425
X168425
X158425
X148425
X138425
X128425
X151969Y165512
T03
X132520Y129921
X152520
T04
X169685Y149606
X423228Y176772
M30
