G04*
G04 #@! TF.GenerationSoftware,Altium Limited,Altium Designer,18.0.9 (584)*
G04*
G04 Layer_Physical_Order=1*
G04 Layer_Color=255*
%FSLAX25Y25*%
%MOIN*%
G70*
G01*
G75*
%ADD10C,0.01000*%
%ADD15R,0.13000X0.07000*%
%ADD16R,0.07000X0.02100*%
%ADD19R,0.07000X0.13000*%
%ADD34R,0.07953X0.13500*%
%ADD35R,0.04331X0.05512*%
%ADD36R,0.05315X0.04528*%
%ADD37R,0.04528X0.05315*%
%ADD38R,0.05512X0.04331*%
%ADD39R,0.11811X0.06299*%
%ADD40R,0.24410X0.22835*%
%ADD41O,0.01339X0.05512*%
%ADD42R,0.01339X0.05512*%
%ADD43R,0.03150X0.04370*%
%ADD44C,0.02000*%
%ADD45C,0.01200*%
%ADD46C,0.03000*%
%ADD47C,0.19685*%
%ADD48R,0.05906X0.05906*%
%ADD49C,0.05906*%
%ADD50C,0.06000*%
%ADD51R,0.05906X0.05906*%
%ADD52C,0.05000*%
D10*
X427165Y159843D02*
X430315Y156693D01*
X409350Y159843D02*
X427165D01*
X403937Y165256D02*
X409350Y159843D01*
X189084Y185827D02*
X198031Y176879D01*
Y173622D02*
Y176879D01*
X194204Y177878D02*
X195472Y176610D01*
Y173622D02*
Y176610D01*
X217480Y185039D02*
X225748Y193307D01*
X197638Y185039D02*
X217480D01*
X195472Y187205D02*
X197638Y185039D01*
X195472Y187205D02*
Y191339D01*
X228268Y200787D02*
X235748Y193307D01*
X202756Y200787D02*
X228268D01*
X198031Y196063D02*
X202756Y200787D01*
X198031Y191339D02*
Y196063D01*
X363071Y216929D02*
X368819Y211181D01*
X269370Y216929D02*
X363071D01*
X245748Y193307D02*
X269370Y216929D01*
X255748Y193307D02*
X270984Y208543D01*
X328858D01*
X331496Y205906D02*
X383543D01*
X328858Y208543D02*
X331496Y205906D01*
X383543D02*
X388819Y211181D01*
X350394Y179134D02*
X350590Y179331D01*
X361811D01*
X374114D02*
X374410Y179626D01*
X361811Y179331D02*
X374114D01*
X361811Y173425D02*
X363386Y171850D01*
Y155905D02*
Y171850D01*
X360374Y152894D02*
X363386Y155905D01*
X355648Y152894D02*
X360374D01*
X374410Y173130D02*
X375848Y171691D01*
Y157894D02*
Y171691D01*
X392126Y153740D02*
X392126Y153740D01*
X392126Y153740D02*
Y165650D01*
X403543Y172146D02*
X403937Y171752D01*
X392126Y172146D02*
X403543D01*
X387894D02*
X392126D01*
X383858Y168110D02*
X387894Y172146D01*
X383858Y155512D02*
Y168110D01*
X381240Y152894D02*
X383858Y155512D01*
X375848Y152894D02*
X381240D01*
X430315Y147835D02*
Y156693D01*
X346083Y157894D02*
X355648D01*
X339665Y151476D02*
X346083Y157894D01*
X284252Y151476D02*
X339665D01*
X284252Y142224D02*
Y151476D01*
X167717Y185827D02*
X189084D01*
X160236Y193307D02*
X167717Y185827D01*
X158425Y193307D02*
X160236D01*
X166142Y182283D02*
X180315D01*
X160598Y187827D02*
X166142Y182283D01*
X153905Y187827D02*
X160598D01*
X163386Y179921D02*
X178740D01*
X157480Y185827D02*
X163386Y179921D01*
X145905Y185827D02*
X157480D01*
X184721Y177878D02*
X194204D01*
X180315Y182283D02*
X184721Y177878D01*
X148425Y193307D02*
X153905Y187827D01*
X185039Y173622D02*
X192913D01*
X178740Y179921D02*
X185039Y173622D01*
X138425Y193307D02*
X145905Y185827D01*
D15*
X188744Y134252D02*
D03*
X212044D02*
D03*
X228114Y171653D02*
D03*
X251414D02*
D03*
X314406Y203543D02*
D03*
X291106D02*
D03*
D16*
X355648Y142894D02*
D03*
Y147894D02*
D03*
Y152894D02*
D03*
Y157894D02*
D03*
X375848D02*
D03*
Y152894D02*
D03*
Y147894D02*
D03*
Y142894D02*
D03*
D19*
X444095Y126539D02*
D03*
Y149839D02*
D03*
D34*
X325591Y135039D02*
D03*
X300394D02*
D03*
D35*
X361614Y128740D02*
D03*
X367520D02*
D03*
D36*
X392126Y172146D02*
D03*
Y165650D02*
D03*
X403937Y165256D02*
D03*
Y171752D02*
D03*
X374410Y179626D02*
D03*
Y173130D02*
D03*
X284252Y157973D02*
D03*
Y151476D02*
D03*
Y142224D02*
D03*
Y135728D02*
D03*
X238976Y127067D02*
D03*
Y133563D02*
D03*
D37*
X149803Y181496D02*
D03*
X143307D02*
D03*
D38*
X416142Y147835D02*
D03*
Y153740D02*
D03*
X392126Y147835D02*
D03*
Y153740D02*
D03*
X361811Y173425D02*
D03*
Y179331D02*
D03*
X261024Y133661D02*
D03*
Y127756D02*
D03*
X271654Y133661D02*
D03*
Y127756D02*
D03*
X250000Y133661D02*
D03*
Y127756D02*
D03*
X403937Y147835D02*
D03*
Y153740D02*
D03*
D39*
X296063Y176339D02*
D03*
Y158307D02*
D03*
D40*
X324410Y167323D02*
D03*
D41*
X200591Y191339D02*
D03*
X198031D02*
D03*
X195472D02*
D03*
X192913D02*
D03*
X200591Y173622D02*
D03*
X198031D02*
D03*
X195472D02*
D03*
D42*
X192913D02*
D03*
D43*
X164764Y173406D02*
D03*
X172244D02*
D03*
X168504Y165965D02*
D03*
D44*
X163602D02*
X168504D01*
X153150Y155512D02*
X163602Y165965D01*
X151969Y155512D02*
X153150D01*
X384017Y131261D02*
Y147835D01*
X374173Y121417D02*
X384017Y131261D01*
X161024Y121417D02*
X374173D01*
X152520Y129921D02*
X161024Y121417D01*
X160610Y177559D02*
X164764Y173406D01*
X158268Y177559D02*
X160610D01*
X154331Y181496D02*
X158268Y177559D01*
X149803Y181496D02*
X154331D01*
X133071D02*
X143307D01*
X128425Y186142D02*
X133071Y181496D01*
X128425Y186142D02*
Y193307D01*
X132520Y146063D02*
X151969Y165512D01*
X132520Y129921D02*
Y146063D01*
D45*
X176988Y173406D02*
X179921Y170473D01*
X172244Y173406D02*
X176988D01*
X424016Y201181D02*
X450000D01*
X405905Y219291D02*
X424016Y201181D01*
X204410Y219291D02*
X405905D01*
X178425Y193307D02*
X204410Y219291D01*
X192913Y185827D02*
Y191339D01*
Y185827D02*
X198425Y180315D01*
X242752D01*
X251414Y171653D01*
X213779Y173622D02*
X215748Y171653D01*
X200591Y173622D02*
X213779D01*
X226145D02*
X228114Y171653D01*
X375848Y137068D02*
Y142894D01*
X367520Y128740D02*
X375848Y137068D01*
X355648Y134706D02*
X361614Y128740D01*
X355648Y134706D02*
Y142894D01*
D46*
X315748Y158661D02*
X324410Y167323D01*
X307087Y158661D02*
X315748D01*
X321654Y135039D02*
X325591D01*
X315748Y140945D02*
X321654Y135039D01*
X273031D02*
X300394D01*
X215748Y171653D02*
X228114D01*
X441500Y126539D02*
X444095D01*
X434646Y119685D02*
X441500Y126539D01*
X384017Y147835D02*
X392126D01*
X375907D02*
X384017D01*
X304170Y193307D02*
X314406Y203543D01*
X265748Y193307D02*
X304170D01*
X243701Y133661D02*
X250000D01*
X239075D02*
X243701D01*
Y163941D02*
X251414Y171653D01*
X243701Y133661D02*
Y163941D01*
X212044Y134252D02*
X212733Y133563D01*
X238976D01*
X175591Y134252D02*
X188744D01*
X283465Y166535D02*
X284252Y165748D01*
Y157973D02*
Y165748D01*
X278346Y203543D02*
X291106D01*
X328740Y201181D02*
X338819D01*
X326378Y203543D02*
X328740Y201181D01*
X314406Y203543D02*
X326378D01*
X251414Y171653D02*
X265748Y185988D01*
Y193307D01*
X294862Y177539D02*
X296063Y176339D01*
X430315Y147835D02*
X439961D01*
X416142D02*
X430315D01*
X422638Y153740D02*
X422835Y153543D01*
X416142Y153740D02*
X422638D01*
X229921Y126772D02*
X230217Y127067D01*
X238976D01*
X344882Y149213D02*
X346201Y147894D01*
X355648D01*
X295728Y157973D02*
X296063Y158307D01*
X284252Y157973D02*
X295728D01*
X296063Y158307D02*
Y176339D01*
X238976Y127067D02*
X239665Y127756D01*
X250000D01*
X261024D01*
X271654D01*
X238976Y133563D02*
X239075Y133661D01*
X250000D02*
X261024D01*
X271654D01*
X273031Y135039D01*
X403937Y153740D02*
X416142D01*
X392126D02*
X403937D01*
X325591Y135039D02*
X333445Y142894D01*
X355648D01*
X375848Y147894D02*
X375907Y147835D01*
X392126D02*
X403937D01*
X416142D01*
X439961D02*
X441965Y149839D01*
X444095D01*
X458661Y164406D01*
Y205512D01*
X452992Y211181D02*
X458661Y205512D01*
X450000Y211181D02*
X452992D01*
D47*
X423228Y176772D02*
D03*
X169685Y149606D02*
D03*
D48*
X338819Y211181D02*
D03*
X265748Y193307D02*
D03*
X178425D02*
D03*
D49*
X338819Y201181D02*
D03*
X348819Y211181D02*
D03*
Y201181D02*
D03*
X358819Y211181D02*
D03*
Y201181D02*
D03*
X368819Y211181D02*
D03*
Y201181D02*
D03*
X378819Y211181D02*
D03*
Y201181D02*
D03*
X388819Y211181D02*
D03*
Y201181D02*
D03*
X398819Y211181D02*
D03*
Y201181D02*
D03*
X450000D02*
D03*
Y191181D02*
D03*
X215748Y193307D02*
D03*
X225748D02*
D03*
X235748D02*
D03*
X245748D02*
D03*
X255748D02*
D03*
X128425D02*
D03*
X138425D02*
D03*
X148425D02*
D03*
X158425D02*
D03*
X168425D02*
D03*
X151969Y155512D02*
D03*
D50*
X152520Y129921D02*
D03*
X132520D02*
D03*
D51*
X450000Y211181D02*
D03*
X151969Y165512D02*
D03*
D52*
X179921Y170473D02*
D03*
X315748Y140945D02*
D03*
X307087Y158661D02*
D03*
X215748Y171653D02*
D03*
X434646Y119685D02*
D03*
X350394Y179134D02*
D03*
X175591Y134252D02*
D03*
X278346Y203543D02*
D03*
X283465Y166535D02*
D03*
X422835Y153543D02*
D03*
X229921Y126772D02*
D03*
X344882Y149213D02*
D03*
X158268Y177559D02*
D03*
M02*
