G04*
G04 #@! TF.GenerationSoftware,Altium Limited,Altium Designer,18.0.9 (584)*
G04*
G04 Layer_Color=65535*
%FSLAX25Y25*%
%MOIN*%
G70*
G01*
G75*
%ADD10C,0.01000*%
%ADD11C,0.00984*%
%ADD12C,0.00787*%
%ADD13C,0.00394*%
%ADD14C,0.00600*%
G36*
X420682Y125511D02*
X420807Y125503D01*
X420957Y125486D01*
X421132Y125461D01*
X421323Y125427D01*
X421532Y125386D01*
X421757Y125336D01*
X421990Y125261D01*
X422223Y125178D01*
X422465Y125078D01*
X422706Y124953D01*
X422939Y124819D01*
X423165Y124653D01*
X423381Y124470D01*
X423389Y124461D01*
X423406Y124445D01*
X423439Y124403D01*
X423489Y124353D01*
X423539Y124295D01*
X423606Y124211D01*
X423673Y124120D01*
X423748Y124020D01*
X423822Y123903D01*
X423906Y123770D01*
X423989Y123620D01*
X424072Y123462D01*
X424147Y123295D01*
X424222Y123112D01*
X424297Y122912D01*
X424364Y122704D01*
X422448Y122246D01*
Y122254D01*
X422440Y122279D01*
X422431Y122320D01*
X422415Y122370D01*
X422390Y122429D01*
X422365Y122504D01*
X422290Y122670D01*
X422198Y122862D01*
X422073Y123054D01*
X421915Y123245D01*
X421832Y123337D01*
X421732Y123420D01*
X421723Y123428D01*
X421707Y123437D01*
X421673Y123462D01*
X421632Y123487D01*
X421582Y123520D01*
X421523Y123562D01*
X421449Y123603D01*
X421365Y123645D01*
X421274Y123678D01*
X421174Y123720D01*
X420949Y123795D01*
X420699Y123845D01*
X420557Y123853D01*
X420416Y123862D01*
X420366D01*
X420316Y123853D01*
X420241D01*
X420149Y123837D01*
X420041Y123820D01*
X419924Y123795D01*
X419799Y123761D01*
X419666Y123720D01*
X419524Y123670D01*
X419383Y123612D01*
X419233Y123537D01*
X419091Y123445D01*
X418950Y123345D01*
X418816Y123220D01*
X418683Y123087D01*
X418675Y123078D01*
X418658Y123054D01*
X418625Y123003D01*
X418583Y122937D01*
X418533Y122854D01*
X418475Y122754D01*
X418416Y122629D01*
X418358Y122487D01*
X418291Y122329D01*
X418233Y122145D01*
X418175Y121937D01*
X418125Y121721D01*
X418083Y121471D01*
X418050Y121204D01*
X418033Y120913D01*
X418025Y120604D01*
Y120596D01*
Y120588D01*
Y120563D01*
Y120521D01*
Y120480D01*
X418033Y120430D01*
Y120305D01*
X418042Y120155D01*
X418058Y119988D01*
X418083Y119796D01*
X418108Y119597D01*
X418142Y119388D01*
X418183Y119172D01*
X418233Y118955D01*
X418300Y118738D01*
X418375Y118530D01*
X418458Y118339D01*
X418558Y118164D01*
X418675Y118006D01*
X418683Y117997D01*
X418708Y117972D01*
X418741Y117939D01*
X418791Y117889D01*
X418858Y117831D01*
X418941Y117764D01*
X419033Y117697D01*
X419133Y117622D01*
X419249Y117547D01*
X419383Y117481D01*
X419516Y117414D01*
X419666Y117356D01*
X419833Y117314D01*
X419999Y117272D01*
X420182Y117247D01*
X420374Y117239D01*
X420449D01*
X420507Y117247D01*
X420574Y117256D01*
X420649Y117264D01*
X420732Y117281D01*
X420832Y117297D01*
X421040Y117356D01*
X421149Y117397D01*
X421257Y117447D01*
X421374Y117506D01*
X421482Y117572D01*
X421590Y117647D01*
X421698Y117731D01*
X421707Y117739D01*
X421723Y117756D01*
X421748Y117781D01*
X421790Y117822D01*
X421832Y117880D01*
X421890Y117939D01*
X421948Y118022D01*
X422007Y118105D01*
X422073Y118214D01*
X422140Y118322D01*
X422206Y118455D01*
X422273Y118589D01*
X422340Y118747D01*
X422398Y118913D01*
X422456Y119088D01*
X422506Y119280D01*
X424389Y118680D01*
Y118672D01*
X424381Y118664D01*
Y118639D01*
X424372Y118614D01*
X424339Y118530D01*
X424306Y118422D01*
X424256Y118289D01*
X424197Y118139D01*
X424131Y117972D01*
X424047Y117797D01*
X423956Y117614D01*
X423847Y117414D01*
X423731Y117222D01*
X423598Y117031D01*
X423456Y116839D01*
X423298Y116664D01*
X423131Y116489D01*
X422948Y116340D01*
X422939Y116331D01*
X422898Y116306D01*
X422848Y116273D01*
X422765Y116223D01*
X422665Y116165D01*
X422548Y116098D01*
X422406Y116031D01*
X422248Y115965D01*
X422073Y115890D01*
X421882Y115823D01*
X421673Y115756D01*
X421449Y115698D01*
X421207Y115648D01*
X420949Y115615D01*
X420682Y115590D01*
X420399Y115581D01*
X420316D01*
X420266Y115590D01*
X420216D01*
X420149Y115598D01*
X420082D01*
X419916Y115623D01*
X419724Y115648D01*
X419516Y115690D01*
X419291Y115748D01*
X419041Y115815D01*
X418791Y115898D01*
X418525Y116006D01*
X418266Y116131D01*
X418000Y116281D01*
X417742Y116456D01*
X417492Y116656D01*
X417250Y116881D01*
X417234Y116898D01*
X417200Y116939D01*
X417134Y117014D01*
X417059Y117122D01*
X416967Y117256D01*
X416867Y117414D01*
X416750Y117606D01*
X416642Y117822D01*
X416526Y118064D01*
X416417Y118330D01*
X416309Y118622D01*
X416217Y118947D01*
X416142Y119288D01*
X416076Y119655D01*
X416042Y120046D01*
X416026Y120463D01*
Y120471D01*
Y120488D01*
Y120521D01*
Y120571D01*
X416034Y120629D01*
Y120696D01*
X416042Y120771D01*
Y120863D01*
X416051Y120954D01*
X416067Y121063D01*
X416092Y121296D01*
X416126Y121546D01*
X416184Y121829D01*
X416242Y122120D01*
X416326Y122429D01*
X416426Y122737D01*
X416542Y123045D01*
X416684Y123353D01*
X416850Y123645D01*
X417042Y123928D01*
X417259Y124186D01*
X417275Y124203D01*
X417317Y124245D01*
X417383Y124311D01*
X417483Y124395D01*
X417608Y124495D01*
X417758Y124611D01*
X417933Y124728D01*
X418133Y124853D01*
X418350Y124978D01*
X418600Y125094D01*
X418866Y125211D01*
X419158Y125311D01*
X419466Y125394D01*
X419799Y125461D01*
X420149Y125503D01*
X420515Y125519D01*
X420632D01*
X420682Y125511D01*
D02*
G37*
G36*
X411952Y115748D02*
X409870D01*
X406438Y125353D01*
X408537D01*
X410969Y118247D01*
X413318Y125353D01*
X415384D01*
X411952Y115748D01*
D02*
G37*
G36*
X405588Y123728D02*
X400407D01*
Y121604D01*
X405230D01*
Y119980D01*
X400407D01*
Y117372D01*
X405771D01*
Y115748D01*
X398466D01*
Y125353D01*
X405588D01*
Y123728D01*
D02*
G37*
G36*
X397433Y115748D02*
X395317D01*
X394484Y117930D01*
X390644D01*
X389853Y115748D01*
X387795D01*
X391527Y125353D01*
X393593D01*
X397433Y115748D01*
D02*
G37*
%LPC*%
G36*
X392535Y123112D02*
X391236Y119555D01*
X393860D01*
X392535Y123112D01*
D02*
G37*
%LPD*%
D10*
X373748Y137894D02*
G03*
X373748Y137894I-500J0D01*
G01*
X126520Y124421D02*
Y135421D01*
Y124421D02*
X158520D01*
Y135421D01*
X126520D02*
X158520D01*
X126981Y138957D02*
Y144955D01*
X129980D01*
X130980Y143955D01*
Y141956D01*
X129980Y140956D01*
X126981D01*
X128981D02*
X130980Y138957D01*
X132979Y143955D02*
X133979Y144955D01*
X135978D01*
X136978Y143955D01*
Y142955D01*
X135978Y141956D01*
X136978Y140956D01*
Y139956D01*
X135978Y138957D01*
X133979D01*
X132979Y139956D01*
Y140956D01*
X133979Y141956D01*
X132979Y142955D01*
Y143955D01*
X133979Y141956D02*
X135978D01*
X192323Y203242D02*
Y198244D01*
X193323Y197244D01*
X195322D01*
X196322Y198244D01*
Y203242D01*
X202320Y197244D02*
X198321D01*
X202320Y201243D01*
Y202242D01*
X201320Y203242D01*
X199321D01*
X198321Y202242D01*
X348031Y170171D02*
Y165173D01*
X349031Y164173D01*
X351030D01*
X352030Y165173D01*
Y170171D01*
X354030Y164173D02*
X356029D01*
X355029D01*
Y170171D01*
X354030Y169172D01*
X278346Y154724D02*
X272348D01*
Y157723D01*
X273348Y158723D01*
X275347D01*
X276347Y157723D01*
Y154724D01*
Y156724D02*
X278346Y158723D01*
X272348Y160722D02*
Y164721D01*
X273348D01*
X277347Y160722D01*
X278346D01*
Y140551D02*
X272348D01*
Y143550D01*
X273348Y144550D01*
X275347D01*
X276347Y143550D01*
Y140551D01*
Y142551D02*
X278346Y144550D01*
X272348Y150548D02*
X273348Y148549D01*
X275347Y146549D01*
X277347D01*
X278346Y147549D01*
Y149548D01*
X277347Y150548D01*
X276347D01*
X275347Y149548D01*
Y146549D01*
X241732Y139370D02*
X235734D01*
Y142369D01*
X236734Y143369D01*
X238733D01*
X239733Y142369D01*
Y139370D01*
Y141369D02*
X241732Y143369D01*
X235734Y149367D02*
Y145368D01*
X238733D01*
X237734Y147368D01*
Y148367D01*
X238733Y149367D01*
X240733D01*
X241732Y148367D01*
Y146368D01*
X240733Y145368D01*
X128347Y178740D02*
Y184738D01*
X131345D01*
X132345Y183739D01*
Y181739D01*
X131345Y180739D01*
X128347D01*
X130346D02*
X132345Y178740D01*
X137344D02*
Y184738D01*
X134344Y181739D01*
X138343D01*
X371654Y184252D02*
Y190250D01*
X374653D01*
X375652Y189250D01*
Y187251D01*
X374653Y186251D01*
X371654D01*
X373653D02*
X375652Y184252D01*
X377652Y189250D02*
X378651Y190250D01*
X380651D01*
X381650Y189250D01*
Y188251D01*
X380651Y187251D01*
X379651D01*
X380651D01*
X381650Y186251D01*
Y185252D01*
X380651Y184252D01*
X378651D01*
X377652Y185252D01*
X398425Y176772D02*
Y182770D01*
X401424D01*
X402424Y181770D01*
Y179771D01*
X401424Y178771D01*
X398425D01*
X400424D02*
X402424Y176772D01*
X408422D02*
X404423D01*
X408422Y180770D01*
Y181770D01*
X407422Y182770D01*
X405423D01*
X404423Y181770D01*
X387008Y176772D02*
Y182770D01*
X390007D01*
X391007Y181770D01*
Y179771D01*
X390007Y178771D01*
X387008D01*
X389007D02*
X391007Y176772D01*
X393006D02*
X395005D01*
X394006D01*
Y182770D01*
X393006Y181770D01*
X168959Y180527D02*
Y184526D01*
X167960Y185526D01*
X165960D01*
X164961Y184526D01*
Y180527D01*
X165960Y179528D01*
X167960D01*
X166960Y181527D02*
X168959Y179528D01*
X167960D02*
X168959Y180527D01*
X170959Y179528D02*
X172958D01*
X171958D01*
Y185526D01*
X170959Y184526D01*
X145669Y142520D02*
Y148518D01*
X148668D01*
X149668Y147518D01*
Y145519D01*
X148668Y144519D01*
X145669D01*
X155666Y148518D02*
X151667D01*
Y145519D01*
X153667Y146518D01*
X154666D01*
X155666Y145519D01*
Y143519D01*
X154666Y142520D01*
X152667D01*
X151667Y143519D01*
X183858Y209055D02*
Y215053D01*
X186857D01*
X187857Y214054D01*
Y212054D01*
X186857Y211054D01*
X183858D01*
X189856Y214054D02*
X190856Y215053D01*
X192855D01*
X193855Y214054D01*
Y213054D01*
X192855Y212054D01*
X191856D01*
X192855D01*
X193855Y211054D01*
Y210055D01*
X192855Y209055D01*
X190856D01*
X189856Y210055D01*
X269370Y209055D02*
Y215053D01*
X272369D01*
X273369Y214054D01*
Y212054D01*
X272369Y211054D01*
X269370D01*
X279367Y209055D02*
X275368D01*
X279367Y213054D01*
Y214054D01*
X278367Y215053D01*
X276368D01*
X275368Y214054D01*
X441732Y177559D02*
Y183557D01*
X444731D01*
X445731Y182557D01*
Y180558D01*
X444731Y179558D01*
X441732D01*
X447730Y177559D02*
X449730D01*
X448730D01*
Y183557D01*
X447730Y182557D01*
X331496Y127258D02*
Y121260D01*
X335495D01*
X337494D02*
X339493D01*
X338494D01*
Y127258D01*
X337494Y126258D01*
X328346Y187494D02*
Y181496D01*
X331346D01*
X332345Y182496D01*
Y186495D01*
X331346Y187494D01*
X328346D01*
X334345Y181496D02*
X336344D01*
X335344D01*
Y187494D01*
X334345Y186495D01*
X247364Y142975D02*
X246364Y141975D01*
Y139976D01*
X247364Y138976D01*
X251362D01*
X252362Y139976D01*
Y141975D01*
X251362Y142975D01*
X252362Y144975D02*
Y146974D01*
Y145974D01*
X246364D01*
X247364Y144975D01*
X252362Y153972D02*
Y149973D01*
X248363Y153972D01*
X247364D01*
X246364Y152972D01*
Y150972D01*
X247364Y149973D01*
X258781Y142975D02*
X257782Y141975D01*
Y139976D01*
X258781Y138976D01*
X262780D01*
X263779Y139976D01*
Y141975D01*
X262780Y142975D01*
X263779Y144975D02*
Y146974D01*
Y145974D01*
X257782D01*
X258781Y144975D01*
X263779Y149973D02*
Y151972D01*
Y150972D01*
X257782D01*
X258781Y149973D01*
X192581Y156573D02*
X191582Y157573D01*
X189582D01*
X188583Y156573D01*
Y152575D01*
X189582Y151575D01*
X191582D01*
X192581Y152575D01*
X194581Y151575D02*
X196580D01*
X195580D01*
Y157573D01*
X194581Y156573D01*
X199579D02*
X200579Y157573D01*
X202578D01*
X203578Y156573D01*
Y152575D01*
X202578Y151575D01*
X200579D01*
X199579Y152575D01*
Y156573D01*
X323684Y195943D02*
X322684Y196943D01*
X320685D01*
X319685Y195943D01*
Y191945D01*
X320685Y190945D01*
X322684D01*
X323684Y191945D01*
X325683D02*
X326683Y190945D01*
X328682D01*
X329682Y191945D01*
Y195943D01*
X328682Y196943D01*
X326683D01*
X325683Y195943D01*
Y194944D01*
X326683Y193944D01*
X329682D01*
X261873Y184526D02*
X260873Y185526D01*
X258874D01*
X257874Y184526D01*
Y180527D01*
X258874Y179528D01*
X260873D01*
X261873Y180527D01*
X263872Y184526D02*
X264872Y185526D01*
X266871D01*
X267871Y184526D01*
Y183526D01*
X266871Y182527D01*
X267871Y181527D01*
Y180527D01*
X266871Y179528D01*
X264872D01*
X263872Y180527D01*
Y181527D01*
X264872Y182527D01*
X263872Y183526D01*
Y184526D01*
X264872Y182527D02*
X266871D01*
X359117Y189250D02*
X358117Y190250D01*
X356118D01*
X355118Y189250D01*
Y185252D01*
X356118Y184252D01*
X358117D01*
X359117Y185252D01*
X361116Y190250D02*
X365115D01*
Y189250D01*
X361116Y185252D01*
Y184252D01*
X280770Y131376D02*
X279771Y132376D01*
X277771D01*
X276772Y131376D01*
Y127378D01*
X277771Y126378D01*
X279771D01*
X280770Y127378D01*
X286768Y132376D02*
X284769Y131376D01*
X282770Y129377D01*
Y127378D01*
X283769Y126378D01*
X285769D01*
X286768Y127378D01*
Y128377D01*
X285769Y129377D01*
X282770D01*
X349668Y130983D02*
X348668Y131982D01*
X346669D01*
X345669Y130983D01*
Y126984D01*
X346669Y125984D01*
X348668D01*
X349668Y126984D01*
X355666Y131982D02*
X351667D01*
Y128983D01*
X353667Y129983D01*
X354666D01*
X355666Y128983D01*
Y126984D01*
X354666Y125984D01*
X352667D01*
X351667Y126984D01*
X393975Y139308D02*
X394974Y140308D01*
Y142307D01*
X393975Y143307D01*
X389976D01*
X388976Y142307D01*
Y140308D01*
X389976Y139308D01*
X388976Y134310D02*
X394974D01*
X391975Y137309D01*
Y133310D01*
X405786Y139308D02*
X406785Y140308D01*
Y142307D01*
X405786Y143307D01*
X401787D01*
X400787Y142307D01*
Y140308D01*
X401787Y139308D01*
X405786Y137309D02*
X406785Y136309D01*
Y134310D01*
X405786Y133310D01*
X404786D01*
X403786Y134310D01*
Y135310D01*
Y134310D01*
X402787Y133310D01*
X401787D01*
X400787Y134310D01*
Y136309D01*
X401787Y137309D01*
X418384Y139308D02*
X419384Y140308D01*
Y142307D01*
X418384Y143307D01*
X414386D01*
X413386Y142307D01*
Y140308D01*
X414386Y139308D01*
X413386Y133310D02*
Y137309D01*
X417384Y133310D01*
X418384D01*
X419384Y134310D01*
Y136309D01*
X418384Y137309D01*
X439825Y166022D02*
X438826Y167022D01*
X436827D01*
X435827Y166022D01*
Y162023D01*
X436827Y161024D01*
X438826D01*
X439825Y162023D01*
X441825Y161024D02*
X443824D01*
X442825D01*
Y167022D01*
X441825Y166022D01*
D11*
X296555Y181653D02*
G03*
X296555Y181653I-492J0D01*
G01*
D12*
X191634Y181841D02*
G03*
X191634Y183120I0J640D01*
G01*
X326492Y121539D02*
Y127039D01*
X299492Y121539D02*
X326492D01*
X299492Y148539D02*
X326492D01*
Y143039D02*
Y148539D01*
X299492Y121539D02*
Y127039D01*
Y143039D02*
Y148539D01*
X307087Y180197D02*
X311602D01*
X307087Y154449D02*
Y180197D01*
Y154449D02*
X311602D01*
X191634Y177953D02*
X201870D01*
Y187008D01*
X191634D02*
X201870D01*
X191634Y183120D02*
Y187008D01*
Y177953D02*
Y181841D01*
X440000Y186181D02*
Y216181D01*
Y186181D02*
X445000D01*
X440000Y216181D02*
X445000D01*
Y186181D02*
Y216181D01*
X426667Y212848D02*
X440000D01*
X425000Y211181D02*
X426667Y212848D01*
X425000Y211181D02*
X426667Y209514D01*
X440000D01*
X426667Y202848D02*
X440000D01*
X425000Y201181D02*
X426667Y202848D01*
X425000Y201181D02*
X426667Y199514D01*
X440000D01*
X426667Y192848D02*
X440000D01*
X425000Y191181D02*
X426667Y192848D01*
X425000Y191181D02*
X426667Y189515D01*
X440000D01*
X210748Y198307D02*
X270748D01*
X269081D02*
X270748Y199974D01*
X214081Y203307D02*
Y216640D01*
X215748Y218307D01*
X217415Y216640D01*
Y203307D02*
Y216640D01*
X224081Y203307D02*
Y216640D01*
X225748Y218307D01*
X227415Y216640D01*
Y203307D02*
Y216640D01*
X234081Y203307D02*
Y216640D01*
X235748Y218307D01*
X237415Y216640D01*
Y203307D02*
Y216640D01*
X244081Y203307D02*
Y216640D01*
X245748Y218307D01*
X247415Y216640D01*
Y203307D02*
Y216640D01*
X254081Y203307D02*
Y216640D01*
X255748Y218307D01*
X257415Y216640D01*
Y203307D02*
Y216640D01*
X264081Y203307D02*
Y216640D01*
X265748Y218307D01*
X267415Y216640D01*
Y203307D02*
Y216640D01*
X210748Y198307D02*
Y203307D01*
X270748D01*
Y198307D02*
Y203307D01*
X123425Y198307D02*
X183425D01*
X181758D02*
X183425Y199974D01*
X126759Y203307D02*
Y216640D01*
X128425Y218307D01*
X130092Y216640D01*
Y203307D02*
Y216640D01*
X136759Y203307D02*
Y216640D01*
X138425Y218307D01*
X140092Y216640D01*
Y203307D02*
Y216640D01*
X146759Y203307D02*
Y216640D01*
X148425Y218307D01*
X150092Y216640D01*
Y203307D02*
Y216640D01*
X156758Y203307D02*
Y216640D01*
X158425Y218307D01*
X160092Y216640D01*
Y203307D02*
Y216640D01*
X166759Y203307D02*
Y216640D01*
X168425Y218307D01*
X170092Y216640D01*
Y203307D02*
Y216640D01*
X176759Y203307D02*
Y216640D01*
X178425Y218307D01*
X180092Y216640D01*
Y203307D02*
Y216640D01*
X123425Y198307D02*
Y203307D01*
X183425D01*
Y198307D02*
Y203307D01*
X128635Y153845D02*
X141969D01*
X126969Y155512D02*
X128635Y153845D01*
X126969Y155512D02*
X128635Y157178D01*
X141969D01*
X128635Y163845D02*
X141969D01*
X126969Y165512D02*
X128635Y163845D01*
X126969Y165512D02*
X128635Y167178D01*
X141969D01*
X146968Y150512D02*
Y170512D01*
X141969D02*
X146968D01*
X141969Y150512D02*
X146968D01*
X141969D02*
Y170512D01*
X167913Y172835D02*
X169095D01*
X171653Y166535D02*
X174213D01*
Y169646D01*
X162795Y166535D02*
Y169646D01*
Y166535D02*
X165354D01*
D13*
X172701Y177205D02*
G03*
X172701Y177205I-197J0D01*
G01*
D14*
X214294Y120352D02*
Y129442D01*
X186494Y120352D02*
X214294D01*
X186494Y139062D02*
Y148152D01*
X214294D01*
Y139062D02*
Y148152D01*
X186494Y120352D02*
Y129442D01*
X253664Y157754D02*
Y166844D01*
X225864Y157754D02*
X253664D01*
X225864Y176464D02*
Y185554D01*
X253664D01*
Y176464D02*
Y185554D01*
X225864Y157754D02*
Y166844D01*
X357398Y140094D02*
X374098D01*
X357398Y160694D02*
X374098D01*
X448905Y152089D02*
X457995D01*
Y124289D02*
Y152089D01*
X430195Y124289D02*
X439285D01*
X430195D02*
Y152089D01*
X439285D01*
X448905Y124289D02*
X457995D01*
X288856Y189643D02*
Y198733D01*
X316656Y208353D02*
Y217443D01*
X288856D02*
X316656D01*
X288856Y208353D02*
Y217443D01*
Y189643D02*
X316656D01*
Y198733D01*
M02*
